<svg xmlns="http://www.w3.org/2000/svg" xmlns:xlink="http://www.w3.org/1999/xlink" width="500" zoomAndPan="magnify" viewBox="0 0 375 374.999991" height="500" preserveAspectRatio="xMidYMid meet" version="1.0"><defs><clipPath id="b84004ef31"><path d="M 119.472656 138 L 125 138 L 125 149 L 119.472656 149 Z M 119.472656 138 " clip-rule="nonzero"/></clipPath><clipPath id="dc3ce33257"><path d="M 158 107.914062 L 164 107.914062 L 164 179.914062 L 158 179.914062 Z M 158 107.914062 " clip-rule="nonzero"/></clipPath><clipPath id="f7bd980a1f"><path d="M 250 139 L 255.222656 139 L 255.222656 148 L 250 148 Z M 250 139 " clip-rule="nonzero"/></clipPath></defs><g clip-path="url(#b84004ef31)"><path fill="#15d57a" d="M 119.546875 138.886719 L 124.660156 138.886719 L 124.660156 148.914062 L 119.546875 148.914062 Z M 119.546875 138.886719 " fill-opacity="1" fill-rule="nonzero"/></g><path fill="#15d57a" d="M 126.066406 132.550781 L 131.179688 132.550781 L 131.179688 155.277344 L 126.066406 155.277344 Z M 126.066406 132.550781 " fill-opacity="1" fill-rule="nonzero"/><path fill="#15d57a" d="M 132.613281 120.472656 L 137.726562 120.472656 L 137.726562 167.355469 L 132.613281 167.355469 Z M 132.613281 120.472656 " fill-opacity="1" fill-rule="nonzero"/><path fill="#15d57a" d="M 139.15625 125.652344 L 144.269531 125.652344 L 144.269531 162.175781 L 139.15625 162.175781 Z M 139.15625 125.652344 " fill-opacity="1" fill-rule="nonzero"/><path fill="#15d57a" d="M 145.703125 132.550781 L 150.816406 132.550781 L 150.816406 155.277344 L 145.703125 155.277344 Z M 145.703125 132.550781 " fill-opacity="1" fill-rule="nonzero"/><path fill="#15d57a" d="M 152.222656 116.777344 L 157.332031 116.777344 L 157.332031 171.050781 L 152.222656 171.050781 Z M 152.222656 116.777344 " fill-opacity="1" fill-rule="nonzero"/><g clip-path="url(#dc3ce33257)"><path fill="#15d57a" d="M 158.765625 107.980469 L 163.878906 107.980469 L 163.878906 179.847656 L 158.765625 179.847656 Z M 158.765625 107.980469 " fill-opacity="1" fill-rule="nonzero"/></g><path fill="#15d57a" d="M 165.308594 123.320312 L 170.421875 123.320312 L 170.421875 164.535156 L 165.308594 164.535156 Z M 165.308594 123.320312 " fill-opacity="1" fill-rule="nonzero"/><path fill="#15d57a" d="M 171.855469 129.601562 L 176.96875 129.601562 L 176.96875 158.25 L 171.855469 158.25 Z M 171.855469 129.601562 " fill-opacity="1" fill-rule="nonzero"/><path fill="#15d57a" d="M 178.375 135.015625 L 183.488281 135.015625 L 183.488281 152.8125 L 178.375 152.8125 Z M 178.375 135.015625 " fill-opacity="1" fill-rule="nonzero"/><path fill="#15d57a" d="M 184.917969 139.914062 L 190.03125 139.914062 L 190.03125 147.941406 L 184.917969 147.941406 Z M 184.917969 139.914062 " fill-opacity="1" fill-rule="nonzero"/><path fill="#15d57a" d="M 191.464844 129.601562 L 196.574219 129.601562 L 196.574219 158.25 L 191.464844 158.25 Z M 191.464844 129.601562 " fill-opacity="1" fill-rule="nonzero"/><path fill="#15d57a" d="M 197.980469 123.320312 L 203.09375 123.320312 L 203.09375 164.535156 L 197.980469 164.535156 Z M 197.980469 123.320312 " fill-opacity="1" fill-rule="nonzero"/><path fill="#15d57a" d="M 204.527344 115.90625 L 209.640625 115.90625 L 209.640625 171.945312 L 204.527344 171.945312 Z M 204.527344 115.90625 " fill-opacity="1" fill-rule="nonzero"/><path fill="#15d57a" d="M 211.070312 125.652344 L 216.183594 125.652344 L 216.183594 162.175781 L 211.070312 162.175781 Z M 211.070312 125.652344 " fill-opacity="1" fill-rule="nonzero"/><path fill="#15d57a" d="M 217.617188 132.550781 L 222.730469 132.550781 L 222.730469 155.277344 L 217.617188 155.277344 Z M 217.617188 132.550781 " fill-opacity="1" fill-rule="nonzero"/><path fill="#15d57a" d="M 224.136719 120.472656 L 229.246094 120.472656 L 229.246094 167.355469 L 224.136719 167.355469 Z M 224.136719 120.472656 " fill-opacity="1" fill-rule="nonzero"/><path fill="#15d57a" d="M 230.679688 125.652344 L 235.792969 125.652344 L 235.792969 162.175781 L 230.679688 162.175781 Z M 230.679688 125.652344 " fill-opacity="1" fill-rule="nonzero"/><path fill="#15d57a" d="M 237.222656 136.835938 L 242.335938 136.835938 L 242.335938 150.992188 L 237.222656 150.992188 Z M 237.222656 136.835938 " fill-opacity="1" fill-rule="nonzero"/><path fill="#15d57a" d="M 243.769531 132.550781 L 248.882812 132.550781 L 248.882812 155.277344 L 243.769531 155.277344 Z M 243.769531 132.550781 " fill-opacity="1" fill-rule="nonzero"/><g clip-path="url(#f7bd980a1f)"><path fill="#15d57a" d="M 250.289062 139.914062 L 255.402344 139.914062 L 255.402344 147.941406 L 250.289062 147.941406 Z M 250.289062 139.914062 " fill-opacity="1" fill-rule="nonzero"/></g></svg>